<svg width="62" height="64" viewBox="0 0 62 64" fill="none" xmlns="http://www.w3.org/2000/svg">
<rect x="5.16666" y="19.8095" width="47.2381" height="23.619" fill="white"/>
<path d="M58.3272 13.5192L34.6728 0.90973C32.3994 -0.303243 29.6006 -0.303243 27.3272 0.90973L3.67276 13.5192C1.39943 14.7294 0 16.9673 0 19.3905V44.6095C0 47.0327 1.39943 49.2706 3.67276 50.4808L27.3272 63.0903C29.6006 64.3032 32.3994 64.3032 34.6728 63.0903L58.3272 50.4808C60.6006 49.2706 62 47.0327 62 44.6095V19.3905C62 16.9673 60.6006 14.7294 58.3272 13.5192ZM30.3534 40.4363C28.4875 42.099 26.0577 42.9277 23.0581 42.9277C20.0112 42.9277 17.4574 41.9845 15.4055 40.0983C13.3507 38.2121 12.3232 35.8706 12.3232 33.074C12.3232 30.2582 13.3713 27.8923 15.4646 25.9733C17.5578 24.0543 20.1411 23.0921 23.2087 23.0921C26.226 23.0921 28.7444 24.0353 30.7638 25.9161C32.1632 27.219 33.1523 29.0316 33.7339 31.3567L27.2121 31.7574C26.4829 29.6913 25.0982 28.6582 23.0581 28.6582C21.7591 28.6582 20.6873 29.0725 19.843 29.9039C18.9986 30.7352 18.5764 31.7901 18.5764 33.074C18.5764 34.3087 18.9897 35.3309 19.8193 36.1405C20.649 36.9473 21.7 37.3507 22.9695 37.3507C24.2568 37.3507 25.2842 36.9964 26.0489 36.2849C26.8135 35.5735 27.2652 34.5541 27.407 33.2266L33.7782 33.3765C33.359 36.4239 32.2164 38.7763 30.3534 40.4363ZM49.4908 34.3469C48.3305 35.4072 46.5827 35.9388 44.2444 35.9388L43.3144 35.9251V30.9697C44.5426 30.9697 45.1567 30.5363 45.1567 29.6695C45.1567 28.8735 44.6872 28.4783 43.7484 28.4783C42.7977 28.4783 42.3253 29.0234 42.3253 30.111V42.4588H36.2375V30.6916C36.2375 29.4732 36.3704 28.4756 36.6331 27.696C36.8989 26.9164 37.3506 26.1886 37.9912 25.5154C38.7116 24.7685 39.6091 24.177 40.6897 23.7436C41.7703 23.3102 42.8833 23.0921 44.0318 23.0921C46.1132 23.0921 47.8581 23.7382 49.2723 25.0302C50.6865 26.3222 51.3951 27.925 51.3951 29.833C51.3951 31.6893 50.7603 33.1939 49.4908 34.3469Z" fill="black"/>
</svg>
